<svg width="34" height="34" viewBox="0 0 34 34" fill="none" xmlns="http://www.w3.org/2000/svg">
<path d="M31.7214 28.4999C32.7637 26.747 33.2849 24.6494 33.2849 22.2848C33.2849 16.186 28.6935 11.9048 22.3922 11.4095C22.9608 10.2595 23.2493 9.06214 23.2493 7.84755C23.2493 6.63296 23.0081 5.48728 22.53 4.48804C19.9544 6.14195 17.4735 7.94231 15.0271 9.79004C20.945 15.7079 26.2557 22.1729 31.7214 28.4999Z" fill="#D9C9E2"/>
<path d="M12.5724 11.6722C10.9013 12.9643 9.23011 14.2607 7.56326 15.5399C6.89997 16.0481 5.84473 15.6347 5.4614 14.9886C5.00054 14.2133 5.35803 13.3864 6.01271 12.8867C10.7936 9.22574 15.5185 5.37953 20.5836 2.08462C18.8866 0.770965 16.3713 0 12.9644 0H4.8584C1.7013 0 0 1.70129 0 4.85837V29.1416C0 32.2987 1.7013 34 4.8584 34H19.2441C23.969 34 27.4233 32.8586 29.7319 30.8817C24.1154 24.3866 18.6756 17.7365 12.5767 11.6765L12.5724 11.6722Z" fill="#CAE4F7"/>
</svg>
